<svg width="29" height="23" viewBox="0 0 29 23" fill="none" xmlns="http://www.w3.org/2000/svg">
<path d="M20.5499 6.71408L27.0366 9.093V21.4634L18.7808 18.6087L9.34564 21.4634L1.08984 18.6087V6.2383L6.98684 8.14143L20.5499 6.71408ZM18.7808 18.6087V11.9477V18.6087ZM9.34564 21.4634V11.9477V21.4634ZM14.0632 16.0137C14.0632 16.0137 6.98684 11.4719 6.98684 7.18987C6.98684 3.62149 10.525 1.48047 14.0632 1.48047C17.6014 1.48047 21.1396 3.62149 21.1396 7.18987C21.1396 11.4719 14.0632 16.0137 14.0632 16.0137ZM15.2426 7.18987C15.2426 6.93749 15.1184 6.69546 14.8972 6.51701C14.676 6.33855 14.376 6.2383 14.0632 6.2383C13.7504 6.2383 13.4505 6.33855 13.2293 6.51701C13.0081 6.69546 12.8838 6.93749 12.8838 7.18987C12.8838 7.44224 13.0081 7.68427 13.2293 7.86272C13.4505 8.04118 13.7504 8.14143 14.0632 8.14143C14.376 8.14143 14.676 8.04118 14.8972 7.86272C15.1184 7.68427 15.2426 7.44224 15.2426 7.18987Z" stroke="#585858" stroke-width="2"/>
</svg>
