<svg width="25" height="28" viewBox="0 0 25 28" fill="none" xmlns="http://www.w3.org/2000/svg">
<path d="M20.9013 14.797C20.887 12.5019 21.9921 10.7722 24.2239 9.49675C22.9757 7.81412 21.0873 6.88867 18.598 6.71032C16.2411 6.53532 13.6624 8.00257 12.7182 8.00257C11.7203 8.00257 9.43848 6.77089 7.64306 6.77089C3.93777 6.82474 0 9.55059 0 15.0965C0 16.7354 0.318312 18.4281 0.954936 20.1713C1.80615 22.4664 4.87482 28.0898 8.07582 27.9989C9.74964 27.9619 10.9335 26.8816 13.1116 26.8816C15.2253 26.8816 16.3197 27.9989 18.1867 27.9989C21.4163 27.9552 24.1917 22.8433 25 20.5415C20.6688 18.6199 20.9013 14.9148 20.9013 14.797ZM20.5222 23.7822C20.0107 24.4519 19.4957 24.9803 19.0236 25.3202C18.6481 25.5894 18.3584 25.7038 18.1652 25.7105C17.8433 25.7072 17.5322 25.6331 16.9242 25.4144C16.8813 25.3976 16.8348 25.3807 16.774 25.3605L16.6166 25.3033C15.9943 25.0779 15.6223 24.9567 15.1466 24.8389C14.4814 24.6774 13.8197 24.5899 13.1116 24.5899C12.3891 24.5899 11.7096 24.674 11.0336 24.8322C10.5365 24.95 10.118 25.0812 9.50644 25.2966C9.4814 25.3067 9.21674 25.4009 9.14163 25.4279C9.01645 25.4716 8.91989 25.5053 8.83047 25.5355C8.45851 25.6567 8.22246 25.7072 8.01145 25.7105C7.98641 25.7105 7.96495 25.7072 7.94707 25.7038C7.90773 25.6971 7.85765 25.6836 7.80043 25.6601C7.63948 25.5995 7.44635 25.4884 7.22818 25.3303C6.72747 24.9635 6.17668 24.388 5.61516 23.651C4.63162 22.352 3.70172 20.629 3.25465 19.4209C2.70386 17.9132 2.43205 16.4696 2.43205 15.0932C2.43205 13.0673 3.06867 11.526 4.16309 10.4794C5.10372 9.58424 6.36981 9.08282 7.66094 9.0559C7.87196 9.05926 8.17954 9.10638 8.56939 9.20733C8.87697 9.28474 9.21316 9.38906 9.66738 9.54049C9.80329 9.58761 10.2718 9.74578 10.329 9.76597C10.6044 9.86019 10.8119 9.9275 11.0157 9.98807C11.6667 10.1833 12.171 10.2909 12.7182 10.2909C13.2725 10.2909 13.7482 10.1799 14.4242 9.96115C14.6781 9.88039 15.6009 9.55732 15.7654 9.50348C16.681 9.19724 17.3569 9.03234 17.9399 8.99196C18.1116 8.9785 18.2654 8.9785 18.412 8.98859C19.2239 9.04917 19.9177 9.2006 20.5079 9.453C19.1631 10.9135 18.4692 12.7005 18.4728 14.7836C18.4621 15.2782 18.505 15.8503 18.6552 16.5268C18.8841 17.5532 19.3205 18.5695 20.0107 19.5218C20.5365 20.2454 21.1874 20.8982 21.9671 21.467C21.5558 22.2645 21.0515 23.089 20.5222 23.7822ZM17.1423 4.533C18.9557 2.50711 18.7911 0.662955 18.7375 0C17.1352 0.0874966 15.2825 1.0264 14.2275 2.18068C13.0651 3.4191 12.382 4.95029 12.5286 6.67666C14.2597 6.80118 15.8405 5.96323 17.1423 4.533Z" fill="black"/>
</svg>
