<svg width="21" height="20" viewBox="0 0 21 20" fill="none" xmlns="http://www.w3.org/2000/svg">
<path d="M8.84016 6.937V8.314H7.83496V9.997H8.84016V15H10.9064V9.997H12.2925C12.2925 9.997 12.4232 9.19 12.486 8.307H10.9144V7.157C10.9144 6.984 11.1398 6.753 11.3631 6.753H12.488V5H10.9573C8.7893 5 8.84016 6.685 8.84016 6.937Z" fill="#CEA59C"/>
<path d="M10.1412 18C12.257 18 14.2862 17.1571 15.7823 15.6569C17.2784 14.1566 18.1189 12.1217 18.1189 10C18.1189 7.87827 17.2784 5.84344 15.7823 4.34315C14.2862 2.84285 12.257 2 10.1412 2C8.02533 2 5.99615 2.84285 4.50003 4.34315C3.0039 5.84344 2.16339 7.87827 2.16339 10C2.16339 12.1217 3.0039 14.1566 4.50003 15.6569C5.99615 17.1571 8.02533 18 10.1412 18ZM10.1412 20C4.63351 20 0.168945 15.523 0.168945 10C0.168945 4.477 4.63351 0 10.1412 0C15.6488 0 20.1134 4.477 20.1134 10C20.1134 15.523 15.6488 20 10.1412 20Z" fill="#CEA59C"/>
</svg>
