<svg width="19" height="24" viewBox="0 0 19 24" fill="none" xmlns="http://www.w3.org/2000/svg">
<path d="M10.3622 11.4783L13.7842 7.53256L2.73115 0.369667C1.9986 -0.0866876 1.31234 -0.150737 0.710561 0.348317L10.3622 11.4783ZM14.3675 16.0979L17.9249 13.7907C18.6193 13.3424 19 12.7072 19 12.0027C19 11.2995 18.6193 10.663 17.9261 10.2146L14.7054 8.12902L11.0797 12.3083L14.3675 16.0979ZM0.115727 1.3184C0.0416615 1.58127 0 1.87483 0 2.19642V21.8183C0 22.3267 0.0972105 22.7644 0.273115 23.1126L9.6435 12.3069L0.115727 1.3184ZM10.3622 13.1342L1.04385 23.8799C1.22207 23.9586 1.41418 24 1.6167 24C1.97777 24 2.35388 23.8772 2.73693 23.6317L13.4474 16.697L10.3622 13.1342Z" fill="black"/>
</svg>
