<svg width="26" height="25" viewBox="0 0 26 25" fill="none" xmlns="http://www.w3.org/2000/svg">
<g clip-path="url(#clip0_1230_3411)">
<path d="M3.34082 18.6288C4.34272 19.1846 11.5944 23.3762 16.7514 20.1455C21.9078 16.9148 21.6232 11.3486 21.6232 8.79758C22.0907 7.81633 23.0775 7.31737 23.0775 4.66112C22.1083 5.55904 21.1449 5.86424 20.1871 5.57779C19.2491 4.14341 17.9584 3.50851 16.3146 3.67414C13.8496 3.92258 12.9479 6.34758 13.2133 9.4856C9.41245 11.4127 6.43221 8.0882 4.89586 5.57779C4.38271 7.55487 3.88825 9.92883 4.89586 12.5543C5.56795 14.3054 7.18376 15.7851 9.74226 16.995C7.14896 18.4038 5.01532 18.9491 3.34082 18.6288Z" stroke="#F6E0DB" stroke-opacity="0.7" stroke-width="4" stroke-linejoin="round"/>
</g>
<defs>
<clipPath id="clip0_1230_3411">
<rect width="24.9305" height="25" fill="white" transform="translate(0.744141)"/>
</clipPath>
</defs>
</svg>
