<svg width="19" height="19" viewBox="0 0 19 19" fill="none" xmlns="http://www.w3.org/2000/svg">
<path d="M14.5057 5.62109C15.1253 5.62109 15.6275 5.11741 15.6275 4.49609C15.6275 3.87477 15.1253 3.37109 14.5057 3.37109C13.8861 3.37109 13.3838 3.87477 13.3838 4.49609C13.3838 5.11741 13.8861 5.62109 14.5057 5.62109Z" fill="#F6E0DB" fill-opacity="0.7"/>
<path d="M9.51553 4.68555C8.56605 4.68555 7.63788 4.96789 6.84841 5.49686C6.05895 6.02584 5.44363 6.77769 5.08028 7.65735C4.71692 8.537 4.62185 9.50495 4.80709 10.4388C4.99233 11.3726 5.44955 12.2304 6.12093 12.9037C6.79232 13.5769 7.64772 14.0354 8.57897 14.2212C9.51021 14.4069 10.4755 14.3116 11.3527 13.9472C12.2299 13.5829 12.9797 12.9658 13.5072 12.1742C14.0347 11.3825 14.3162 10.4517 14.3162 9.49961C14.3162 8.22284 13.8104 6.99836 12.9101 6.09555C12.0098 5.19274 10.7888 4.68555 9.51553 4.68555ZM9.51553 12.6246C8.89918 12.6246 8.29668 12.4413 7.7842 12.098C7.27172 11.7546 6.8723 11.2665 6.63643 10.6955C6.40056 10.1245 6.33885 9.49614 6.45909 8.88995C6.57934 8.28376 6.87614 7.72694 7.31196 7.2899C7.74779 6.85286 8.30306 6.55523 8.90757 6.43465C9.51208 6.31408 10.1387 6.37596 10.7081 6.61249C11.2775 6.84901 11.7642 7.24955 12.1067 7.76345C12.4491 8.27736 12.6319 8.88154 12.6319 9.49961C12.6319 10.3284 12.3035 11.1233 11.7191 11.7093C11.1347 12.2954 10.342 12.6246 9.51553 12.6246Z" fill="#F6E0DB" fill-opacity="0.7"/>
<path d="M9.51497 1.81406C12.0111 1.81406 12.3072 1.82344 13.2927 1.86875C13.8855 1.87581 14.4726 1.98495 15.0285 2.19141C15.4318 2.34742 15.7981 2.58636 16.1037 2.89287C16.4094 3.19939 16.6477 3.56667 16.8033 3.97109C17.0091 4.52854 17.118 5.11731 17.125 5.71172C17.1702 6.7 17.1796 6.99687 17.1796 9.50078C17.1796 12.0047 17.1702 12.3 17.125 13.2883C17.118 13.8827 17.0091 14.4715 16.8033 15.0289C16.6477 15.4333 16.4094 15.8006 16.1037 16.1071C15.7981 16.4136 15.4318 16.6526 15.0285 16.8086C14.4726 17.0151 13.8855 17.1242 13.2927 17.1313C12.3072 17.1766 12.0111 17.1859 9.51497 17.1859C7.0188 17.1859 6.72275 17.1766 5.73721 17.1313C5.14446 17.1242 4.55732 17.0151 4.00143 16.8086C3.59812 16.6526 3.23186 16.4136 2.9262 16.1071C2.62054 15.8006 2.38226 15.4333 2.22668 15.0289C2.0208 14.4715 1.91196 13.8827 1.90492 13.2883C1.85973 12.3 1.85039 12.0031 1.85039 9.5C1.85039 6.99687 1.85973 6.7 1.90492 5.71172C1.91196 5.11731 2.0208 4.52854 2.22668 3.97109C2.38226 3.56667 2.62054 3.19939 2.9262 2.89287C3.23186 2.58636 3.59812 2.34742 4.00143 2.19141C4.55732 1.98495 5.14446 1.87581 5.73721 1.86875C6.72275 1.82344 7.0188 1.81406 9.51497 1.81406ZM9.51497 0.125C6.97595 0.125 6.65731 0.135938 5.66009 0.18125C4.88473 0.19695 4.11763 0.344351 3.39141 0.617188C2.77026 0.858045 2.20616 1.22639 1.73525 1.69861C1.26434 2.17083 0.897024 2.7365 0.656836 3.35938C0.384671 4.08787 0.237678 4.85737 0.222109 5.63516C0.176923 6.63516 0.166016 6.95312 0.166016 9.5C0.166016 12.0469 0.176923 12.3656 0.222109 13.3656C0.237766 14.1431 0.384757 14.9124 0.656836 15.6406C0.897024 16.2635 1.26434 16.8292 1.73525 17.3014C2.20616 17.7736 2.77026 18.142 3.39141 18.3828C4.11788 18.6557 4.88524 18.8031 5.66086 18.8188C6.65809 18.8641 6.97595 18.875 9.51497 18.875C12.054 18.875 12.3726 18.8641 13.3699 18.8188C14.1455 18.8031 14.9128 18.6557 15.6393 18.3828C16.2605 18.142 16.8246 17.7736 17.2955 17.3014C17.7664 16.8292 18.1337 16.2635 18.3739 15.6406C18.6458 14.9121 18.7925 14.1426 18.8078 13.3648C18.853 12.3648 18.8639 12.0469 18.8639 9.5C18.8639 6.95312 18.853 6.63438 18.8078 5.63438C18.7922 4.85685 18.6452 4.08762 18.3731 3.35938C18.1329 2.7365 17.7656 2.17083 17.2947 1.69861C16.8238 1.22639 16.2597 0.858045 15.6385 0.617188C14.912 0.344531 14.1447 0.197393 13.3691 0.182031C12.3719 0.135156 12.0548 0.125 9.51497 0.125Z" fill="#F6E0DB" fill-opacity="0.7"/>
</svg>
