<svg width="7" height="22" viewBox="0 0 7 22" fill="none" xmlns="http://www.w3.org/2000/svg">
<path d="M0.112328 19.2605V18.6761C0.12639 18.6289 0.149828 18.5859 0.159203 18.5386C0.365453 17.3097 1.48108 16.3386 2.78887 16.257C4.25137 16.1625 5.48887 16.9273 5.89199 18.1734C5.94355 18.3367 5.98105 18.5085 6.02793 18.6761V19.2605C6.01387 19.2992 5.99043 19.3335 5.98574 19.3765C5.78418 20.5109 4.89356 21.3745 3.67481 21.6194C3.58106 21.6366 3.48731 21.6624 3.39356 21.6839H2.75605C2.71387 21.671 2.67168 21.6495 2.62949 21.6452C1.41074 21.4648 0.48264 20.6698 0.201367 19.5655C0.173242 19.4581 0.14043 19.3593 0.112305 19.2605H0.112328ZM6.02795 2.74334L6.02793 3.32776C6.01387 3.37502 5.99043 3.41799 5.98574 3.46526C5.77481 4.70276 4.65449 5.66955 3.33262 5.7469C1.8748 5.83283 0.641992 5.0594 0.243554 3.80901C0.191992 3.65 0.154492 3.48674 0.112305 3.32773V2.74336C0.126367 2.70469 0.149805 2.67031 0.15918 2.63164C0.38418 1.51445 1.09199 0.783984 2.27324 0.435938C2.42793 0.388672 2.59199 0.362891 2.75137 0.324219H3.38887C3.43105 0.337109 3.47324 0.358594 3.51543 0.362891C4.73887 0.547656 5.66231 1.33828 5.94356 2.44258C5.9717 2.5457 5.99983 2.64453 6.02795 2.74334ZM6.02793 10.7098V11.2941C6.01387 11.3414 5.99043 11.3844 5.98105 11.4316C5.77012 12.6648 4.60762 13.6574 3.29512 13.709C1.81855 13.7691 0.566992 12.9527 0.21543 11.6938C0.17793 11.5605 0.145117 11.4273 0.112305 11.2941V10.7098C0.126367 10.6625 0.149805 10.6195 0.15918 10.5723C0.36543 9.33906 1.53262 8.34646 2.84512 8.29063C4.32168 8.22617 5.57324 9.04688 5.92481 10.3059C5.96231 10.4434 5.99512 10.5766 6.02793 10.7098Z" fill="white"/>
</svg>
