<svg width="30" height="25" viewBox="0 0 30 25" fill="none" xmlns="http://www.w3.org/2000/svg">
<path d="M26.1277 24.3718H25.9368C3.8726 23.3126 0.739817 7.77086 0.301901 3.02773C0.233458 2.28415 0.521626 1.54833 1.10302 0.982114C1.68441 0.415896 2.51142 0.0656583 3.40212 0.00843734C3.4912 0.00281307 3.58065 8.78877e-07 3.67048 8.78877e-07H9.58796C10.0377 -0.000362602 10.4773 0.112027 10.8496 0.322611C11.222 0.533194 11.5101 0.83227 11.6765 1.1811L13.3832 4.68689C13.5476 5.02767 13.5883 5.40125 13.5005 5.76121C13.4127 6.12118 13.2001 6.45167 12.8892 6.71163L10.4975 8.72699C10.8696 10.4999 11.8858 12.1343 13.4083 13.4087C14.9309 14.6831 16.8861 15.5358 19.0088 15.8511L21.4454 13.8357C21.7615 13.579 22.1611 13.4057 22.5944 13.3373C23.0277 13.269 23.4755 13.3086 23.882 13.4514L28.1152 14.8668C28.5267 15.0101 28.8778 15.2525 29.1238 15.563C29.3698 15.8735 29.4994 16.2381 29.4963 16.6103V21.5597C29.4963 22.3055 29.1414 23.0208 28.5096 23.5482C27.8779 24.0756 27.0211 24.3718 26.1277 24.3718ZM3.67048 1.87476C3.52303 1.87439 3.37693 1.89827 3.24053 1.94503C3.10412 1.9918 2.98009 2.06054 2.87551 2.14732C2.77093 2.2341 2.68785 2.33723 2.63101 2.45082C2.57418 2.5644 2.5447 2.68622 2.54425 2.80932C2.54425 2.83557 2.54538 2.8615 2.54762 2.88712C3.06414 8.4364 6.37658 21.5597 26.0603 22.4971C26.3575 22.5119 26.6496 22.4277 26.8724 22.2628C27.0952 22.0979 27.2304 21.8659 27.2483 21.6178L27.2506 21.5597V16.6103L23.0174 15.1949L19.7948 17.8664L19.2558 17.8102C9.4869 16.7884 8.16193 8.63325 8.16193 8.54889L8.09455 8.09895L11.2835 5.40867L9.59919 1.87476H3.67048Z" fill="black" fill-opacity="0.7"/>
<path d="M23.6555 7.99059H21.7085C21.7077 7.36571 21.3998 6.76659 20.8523 6.32473C20.3048 5.88287 19.5624 5.63436 18.7881 5.63374V4.0625C20.0785 4.06375 21.3157 4.478 22.2281 5.21439C23.1406 5.95078 23.6539 6.94918 23.6555 7.99059Z" fill="black"/>
<path d="M28.523 7.07116H26.5761C26.574 5.61304 25.8554 4.21511 24.5779 3.18406C23.3004 2.15301 21.5684 1.57303 19.7617 1.57137V0C22.0846 0.00207959 24.3115 0.747743 25.9541 2.07339C27.5966 3.39904 28.5204 5.19641 28.523 7.07116V7.07116Z" fill="black"/>
</svg>
