<svg width="40" height="41" viewBox="0 0 40 41" fill="none" xmlns="http://www.w3.org/2000/svg">
<rect width="40" height="41" rx="5" fill="url(#paint0_linear_1230_2517)"/>
<path d="M20.4551 6.6875L22.7084 8.97211L11.5902 18.2801L12.3313 13.5056L20.4551 6.6875Z" fill="#760606"/>
<path d="M22.8358 27.3134L20.581 25.03L12.8322 31.2478L18.003 31.1313L22.8358 27.3134Z" fill="white"/>
<path d="M27.9414 27.6328L25.6898 25.3469L18.4656 31.1574L23.3225 31.1066L27.9414 27.6328Z" fill="#E03A07"/>
<path d="M28.1178 27.8283L31.3135 31.178L23.9878 31.1049L28.1178 27.8283Z" fill="#E03A07"/>
<path d="M25.5269 25.1881L23.2476 22.8849L14.9687 29.5161L20.3654 29.2617L25.5269 25.1881Z" fill="white"/>
<path d="M19.6289 12.0391L21.8726 14.3143L10.8619 23.6102L11.5051 18.8572L19.6289 12.0391Z" fill="#760606"/>
<path d="M18.9346 17.3125L21.1783 19.5878L10.0601 28.8958L10.8108 24.1306L18.9346 17.3125Z" fill="#760606"/>
<path d="M20.7259 24.4152L19.7142 23.4269L9.64989 31.2692L12.2731 31.2299L20.7259 24.4152Z" fill="white"/>
<path d="M18.6455 22.2812L19.7106 23.4171L9.71377 31.3166L10.0036 29.4974L18.6455 22.2812Z" fill="#760606"/>
<path d="M23.1006 9.11719L25.2578 11.4265L14.2224 20.6964L14.977 15.9351L23.1006 9.11719Z" fill="#760606"/>
<path d="M28.2393 14.4297L30.3025 16.5976L16.8529 27.5772L18.4093 22.4701L28.2393 14.4297Z" fill="white"/>
<path d="M25.541 11.7188L27.8446 14.0142L13.5421 25.9881L15.1516 20.4866L25.541 11.7188Z" fill="#760606"/>
<path d="M23.5792 9.68175L25.8104 11.9849L10.1287 28.5827L11.5018 19.1214L23.5792 9.68175Z" fill="#760606"/>
<path d="M20.6484 6.48438L30.3579 16.6181L9.7374 31.2295L12.2885 13.6113L20.6484 6.48438Z" fill="white"/>
<path d="M26.5396 26.1606L24.2776 23.8829L14.5006 31.1745L31.1071 31.1191L28.8457 28.5702L26.5396 26.1606Z" fill="white"/>
<defs>
<linearGradient id="paint0_linear_1230_2517" x1="-6.82716e-07" y1="2.39046" x2="38.7693" y2="38.45" gradientUnits="userSpaceOnUse">
<stop stop-color="#D31B1B"/>
<stop offset="1" stop-color="#912B2B" stop-opacity="0.86"/>
</linearGradient>
</defs>
</svg>
